<svg width="24" height="24" viewBox="0 0 24 24" fill="none" xmlns="http://www.w3.org/2000/svg">
<path d="M8.14879 17C7.85679 17 7.56479 16.8924 7.33426 16.6619C6.88858 16.2162 6.88858 15.4785 7.33426 15.0328L16.0328 6.33426C16.4785 5.88858 17.2162 5.88858 17.6619 6.33426C18.1076 6.77995 18.1076 7.51764 17.6619 7.96332L8.96332 16.6619C8.74817 16.8924 8.4408 17 8.14879 17Z" fill="#9B9B9B"/>
<path d="M16.8474 17C16.5554 17 16.2634 16.8924 16.0328 16.6619L7.33426 7.96332C6.88858 7.51764 6.88858 6.77995 7.33426 6.33426C7.77995 5.88858 8.51764 5.88858 8.96332 6.33426L17.6619 15.0328C18.1076 15.4785 18.1076 16.2162 17.6619 16.6619C17.4314 16.8924 17.1394 17 16.8474 17Z" fill="#9B9B9B"/>
</svg>
