<svg width="11" height="11" viewBox="0 0 11 11" fill="none" xmlns="http://www.w3.org/2000/svg">
<path d="M1.14879 11C0.856793 11 0.564792 10.8924 0.334265 10.6619C-0.111422 10.2162 -0.111422 9.47852 0.334265 9.03283L9.03283 0.334265C9.47852 -0.111422 10.2162 -0.111422 10.6619 0.334265C11.1076 0.779951 11.1076 1.51764 10.6619 1.96332L1.96332 10.6619C1.74817 10.8924 1.4408 11 1.14879 11Z" fill="white"/>
<path d="M9.84736 11C9.55536 11 9.26336 10.8924 9.03283 10.6619L0.334265 1.96332C-0.111422 1.51764 -0.111422 0.779951 0.334265 0.334265C0.779951 -0.111422 1.51764 -0.111422 1.96332 0.334265L10.6619 9.03283C11.1076 9.47852 11.1076 10.2162 10.6619 10.6619C10.4314 10.8924 10.1394 11 9.84736 11Z" fill="white"/>
</svg>
