<svg width="5" height="21" viewBox="0 0 5 21" fill="none" xmlns="http://www.w3.org/2000/svg">
<path d="M2.46001 4.92C3.81863 4.92 4.92 3.81862 4.92 2.46C4.92 1.10138 3.81863 0 2.46001 0C1.10139 0 0 1.10138 0 2.46C0 3.81862 1.10139 4.92 2.46001 4.92Z" fill="#333333"/>
<path d="M2.45999 12.8399C3.81861 12.8399 4.92 11.7385 4.92 10.3799C4.92 9.0213 3.81861 7.91992 2.45999 7.91992C1.10137 7.91992 0 9.0213 0 10.3799C0 11.7385 1.10137 12.8399 2.45999 12.8399Z" fill="#333333"/>
<path d="M2.45999 20.7598C3.81861 20.7598 4.92 19.6585 4.92 18.2998C4.92 16.9412 3.81861 15.8398 2.45999 15.8398C1.10137 15.8398 0 16.9412 0 18.2998C0 19.6585 1.10137 20.7598 2.45999 20.7598Z" fill="#333333"/>
</svg>
