<svg width="11" height="11" viewBox="0 0 11 11" fill="none" xmlns="http://www.w3.org/2000/svg">
<path d="M1.14892 11C0.856915 11 0.564914 10.8924 0.334387 10.6619C-0.1113 10.2162 -0.1113 9.47852 0.334387 9.03283L9.03296 0.334265C9.47864 -0.111422 10.2163 -0.111422 10.662 0.334265C11.1077 0.779951 11.1077 1.51764 10.662 1.96332L1.96345 10.6619C1.74829 10.8924 1.44092 11 1.14892 11Z" fill="#FF3426"/>
<path d="M9.84748 11C9.55548 11 9.26348 10.8924 9.03296 10.6619L0.334387 1.96332C-0.1113 1.51764 -0.1113 0.779951 0.334387 0.334265C0.780073 -0.111422 1.51776 -0.111422 1.96345 0.334265L10.662 9.03283C11.1077 9.47852 11.1077 10.2162 10.662 10.6619C10.4315 10.8924 10.1395 11 9.84748 11Z" fill="#FF3426"/>
</svg>
