<svg width="28" height="28" viewBox="0 0 28 28" fill="none" xmlns="http://www.w3.org/2000/svg">
<path d="M16.1621 3.38779L18.3621 7.78779C18.6621 8.40029 19.4621 8.98779 20.1371 9.10029L24.1246 9.76279C26.6746 10.1878 27.2746 12.0378 25.4371 13.8628L22.3371 16.9628C21.8121 17.4878 21.5246 18.5003 21.6871 19.2253L22.5746 23.0628C23.2746 26.1003 21.6621 27.2753 18.9746 25.6878L15.2371 23.4753C14.5621 23.0753 13.4496 23.0753 12.7621 23.4753L9.02464 25.6878C6.34964 27.2753 4.72464 26.0878 5.42464 23.0628L6.31214 19.2253C6.47464 18.5003 6.18714 17.4878 5.66214 16.9628L2.56214 13.8628C0.737142 12.0378 1.32464 10.1878 3.87464 9.76279L7.86214 9.10029C8.52464 8.98779 9.32464 8.40029 9.62464 7.78779L11.8246 3.38779C13.0246 1.00029 14.9746 1.00029 16.1621 3.38779Z" stroke="#9B9B9B" stroke-width="1.875" stroke-linecap="round" stroke-linejoin="round"/>
</svg>
