<svg width="26" height="28" viewBox="0 0 26 28" fill="none" xmlns="http://www.w3.org/2000/svg">
<path d="M13.0216 5.15253C9.43581 5.15253 6.52164 8.0667 6.52164 11.6525V14.7834C6.52164 15.4442 6.23997 16.4517 5.90414 17.015L4.65831 19.0842C3.88914 20.3625 4.41997 21.7817 5.82831 22.2584C10.4975 23.8184 15.535 23.8184 20.2041 22.2584C21.515 21.825 22.0891 20.2759 21.3741 19.0842L20.1283 17.015C19.8033 16.4517 19.5216 15.4442 19.5216 14.7834V11.6525C19.5216 8.07753 16.5966 5.15253 13.0216 5.15253Z" stroke="#9B9B9B" stroke-width="1.625" stroke-miterlimit="10" stroke-linecap="round"/>
<path d="M15.0259 5.4666C14.6901 5.3691 14.3434 5.29327 13.9859 5.24993C12.9459 5.11993 11.9492 5.19577 11.0176 5.4666C11.3317 4.66493 12.1117 4.1016 13.0217 4.1016C13.9317 4.1016 14.7117 4.66493 15.0259 5.4666Z" stroke="#9B9B9B" stroke-width="1.625" stroke-miterlimit="10" stroke-linecap="round" stroke-linejoin="round"/>
<path d="M16.2717 22.6484C16.2717 24.4359 14.8092 25.8984 13.0217 25.8984C12.1334 25.8984 11.3101 25.5301 10.7251 24.9451C10.1401 24.3601 9.77173 23.5367 9.77173 22.6484" stroke="#9B9B9B" stroke-width="1.625" stroke-miterlimit="10"/>
<circle cx="20" cy="5" r="5" fill="black"/>
</svg>
