<svg width="24" height="24" viewBox="0 0 24 24" fill="none" xmlns="http://www.w3.org/2000/svg">
<path d="M2 2H3.74001C4.82001 2 5.67 2.93 5.58 4L4.75 13.96C4.61 15.59 5.89999 16.99 7.53999 16.99H18.19C19.63 16.99 20.89 15.81 21 14.38L21.54 6.88001C21.66 5.22001 20.4 3.87 18.73 3.87H5.82001" stroke="#333333" stroke-width="1.56028" stroke-miterlimit="10" stroke-linecap="round" stroke-linejoin="round"/>
<path d="M16.25 22.0005C16.9404 22.0005 17.5 21.4408 17.5 20.7505C17.5 20.0601 16.9404 19.5005 16.25 19.5005C15.5596 19.5005 15 20.0601 15 20.7505C15 21.4408 15.5596 22.0005 16.25 22.0005Z" stroke="#333333" stroke-width="1.56028" stroke-miterlimit="10" stroke-linecap="round" stroke-linejoin="round"/>
<path d="M8.25 22.0005C8.94036 22.0005 9.5 21.4408 9.5 20.7505C9.5 20.0601 8.94036 19.5005 8.25 19.5005C7.55964 19.5005 7 20.0601 7 20.7505C7 21.4408 7.55964 22.0005 8.25 22.0005Z" stroke="#333333" stroke-width="1.56028" stroke-miterlimit="10" stroke-linecap="round" stroke-linejoin="round"/>
<path d="M9 8.00049H21" stroke="#333333" stroke-width="1.56028" stroke-miterlimit="10" stroke-linecap="round" stroke-linejoin="round"/>
<circle cx="19" cy="5" r="5" fill="#FF3426"/>
</svg>
