<svg width="24" height="24" viewBox="0 0 24 24" fill="none" xmlns="http://www.w3.org/2000/svg">
<g clip-path="url(#clip0_638_8611)">
<path d="M18.9997 19.6664C17.9965 19.9629 16.8108 20.0997 15.42 20.0997H8.57972C7.18888 20.0997 6.00324 19.9629 5 19.6664C5.25081 16.7023 8.29471 14.3652 11.9998 14.3652C15.705 14.3652 18.7489 16.7023 18.9997 19.6664Z" stroke="#333333" stroke-width="1.71006" stroke-linecap="round" stroke-linejoin="round"/>
<path d="M16.1627 7.08136C16.1627 9.33864 14.3386 11.1741 12.0813 11.1741C9.82407 11.1741 8 9.33864 8 7.08136C8 4.82408 9.82407 3 12.0813 3C14.3386 3 16.1627 4.82408 16.1627 7.08136Z" stroke="#333333" stroke-width="1.71006" stroke-linecap="round" stroke-linejoin="round"/>
<circle cx="19" cy="19" r="5" fill="#333333"/>
<path d="M16 19.0055L17.9972 21.0111L22 17" fill="#333333"/>
<path d="M16 19.0055L17.9972 21.0111L22 17" stroke="white" stroke-width="1.24309" stroke-linecap="round" stroke-linejoin="round"/>
</g>
<defs>
<clipPath id="clip0_638_8611">
<rect width="24" height="24" rx="5" fill="white"/>
</clipPath>
</defs>
</svg>
