<svg width="194" height="44" viewBox="0 0 194 44" fill="none" xmlns="http://www.w3.org/2000/svg">
<rect width="194" height="44" rx="5" fill="black"/>
<path d="M29.5701 15.9297L23.5001 21.9997L29.5701 28.0697" stroke="white" stroke-width="1.5" stroke-miterlimit="10" stroke-linecap="round" stroke-linejoin="round"/>
<path d="M40.5 22H23.67" stroke="white" stroke-width="1.5" stroke-miterlimit="10" stroke-linecap="round" stroke-linejoin="round"/>
<path d="M62.448 20.32C62.2453 19.9467 61.952 19.664 61.568 19.472C61.1947 19.2693 60.752 19.168 60.24 19.168C59.3547 19.168 58.6453 19.4613 58.112 20.048C57.5787 20.624 57.312 21.3973 57.312 22.368C57.312 23.4027 57.5893 24.2133 58.144 24.8C58.7093 25.376 59.4827 25.664 60.464 25.664C61.136 25.664 61.7013 25.4933 62.16 25.152C62.6293 24.8107 62.9707 24.32 63.184 23.68H59.712V21.664H65.664V24.208C65.4613 24.8907 65.1147 25.5253 64.624 26.112C64.144 26.6987 63.5307 27.1733 62.784 27.536C62.0373 27.8987 61.1947 28.08 60.256 28.08C59.1467 28.08 58.1547 27.84 57.28 27.36C56.416 26.8693 55.7387 26.192 55.248 25.328C54.768 24.464 54.528 23.4773 54.528 22.368C54.528 21.2587 54.768 20.272 55.248 19.408C55.7387 18.5333 56.416 17.856 57.28 17.376C58.144 16.8853 59.1307 16.64 60.24 16.64C61.584 16.64 62.7147 16.9653 63.632 17.616C64.56 18.2667 65.1733 19.168 65.472 20.32H62.448ZM71.2435 28.128C70.3688 28.128 69.5795 27.9413 68.8755 27.568C68.1822 27.1947 67.6328 26.6613 67.2275 25.968C66.8328 25.2747 66.6355 24.464 66.6355 23.536C66.6355 22.6187 66.8382 21.8133 67.2435 21.12C67.6488 20.416 68.2035 19.8773 68.9075 19.504C69.6115 19.1307 70.4008 18.944 71.2755 18.944C72.1502 18.944 72.9395 19.1307 73.6435 19.504C74.3475 19.8773 74.9022 20.416 75.3075 21.12C75.7128 21.8133 75.9155 22.6187 75.9155 23.536C75.9155 24.4533 75.7075 25.264 75.2915 25.968C74.8862 26.6613 74.3262 27.1947 73.6115 27.568C72.9075 27.9413 72.1182 28.128 71.2435 28.128ZM71.2435 25.76C71.7662 25.76 72.2088 25.568 72.5715 25.184C72.9448 24.8 73.1315 24.2507 73.1315 23.536C73.1315 22.8213 72.9502 22.272 72.5875 21.888C72.2355 21.504 71.7982 21.312 71.2755 21.312C70.7422 21.312 70.2995 21.504 69.9475 21.888C69.5955 22.2613 69.4195 22.8107 69.4195 23.536C69.4195 24.2507 69.5902 24.8 69.9315 25.184C70.2835 25.568 70.7208 25.76 71.2435 25.76ZM83.4936 20.336C83.7496 19.92 84.1176 19.584 84.5976 19.328C85.0776 19.072 85.627 18.944 86.2456 18.944C86.9816 18.944 87.6483 19.1307 88.2456 19.504C88.843 19.8773 89.3123 20.4107 89.6536 21.104C90.0056 21.7973 90.1816 22.6027 90.1816 23.52C90.1816 24.4373 90.0056 25.248 89.6536 25.952C89.3123 26.6453 88.843 27.184 88.2456 27.568C87.6483 27.9413 86.9816 28.128 86.2456 28.128C85.6163 28.128 85.067 28.0053 84.5976 27.76C84.1283 27.504 83.7603 27.168 83.4936 26.752V28H80.7576V16.16H83.4936V20.336ZM87.3976 23.52C87.3976 22.8373 87.2056 22.304 86.8216 21.92C86.4483 21.5253 85.9843 21.328 85.4296 21.328C84.8856 21.328 84.4216 21.5253 84.0376 21.92C83.6643 22.3147 83.4776 22.8533 83.4776 23.536C83.4776 24.2187 83.6643 24.7573 84.0376 25.152C84.4216 25.5467 84.8856 25.744 85.4296 25.744C85.9736 25.744 86.4376 25.5467 86.8216 25.152C87.2056 24.7467 87.3976 24.2027 87.3976 23.52ZM91.073 23.52C91.073 22.6027 91.2437 21.7973 91.585 21.104C91.937 20.4107 92.4117 19.8773 93.009 19.504C93.6063 19.1307 94.273 18.944 95.009 18.944C95.6383 18.944 96.1877 19.072 96.657 19.328C97.137 19.584 97.505 19.92 97.761 20.336V19.072H100.497V28H97.761V26.736C97.4943 27.152 97.121 27.488 96.641 27.744C96.1717 28 95.6223 28.128 94.993 28.128C94.2677 28.128 93.6063 27.9413 93.009 27.568C92.4117 27.184 91.937 26.6453 91.585 25.952C91.2437 25.248 91.073 24.4373 91.073 23.52ZM97.761 23.536C97.761 22.8533 97.569 22.3147 97.185 21.92C96.8117 21.5253 96.353 21.328 95.809 21.328C95.265 21.328 94.801 21.5253 94.417 21.92C94.0437 22.304 93.857 22.8373 93.857 23.52C93.857 24.2027 94.0437 24.7467 94.417 25.152C94.801 25.5467 95.265 25.744 95.809 25.744C96.353 25.744 96.8117 25.5467 97.185 25.152C97.569 24.7573 97.761 24.2187 97.761 23.536ZM101.932 23.536C101.932 22.608 102.119 21.7973 102.492 21.104C102.876 20.4107 103.404 19.8773 104.076 19.504C104.759 19.1307 105.538 18.944 106.412 18.944C107.532 18.944 108.466 19.2373 109.212 19.824C109.97 20.4107 110.466 21.2373 110.7 22.304H107.788C107.543 21.6213 107.068 21.28 106.364 21.28C105.863 21.28 105.463 21.4773 105.164 21.872C104.866 22.256 104.716 22.8107 104.716 23.536C104.716 24.2613 104.866 24.8213 105.164 25.216C105.463 25.6 105.863 25.792 106.364 25.792C107.068 25.792 107.543 25.4507 107.788 24.768H110.7C110.466 25.8133 109.97 26.6347 109.212 27.232C108.455 27.8293 107.522 28.128 106.412 28.128C105.538 28.128 104.759 27.9413 104.076 27.568C103.404 27.1947 102.876 26.6613 102.492 25.968C102.119 25.2747 101.932 24.464 101.932 23.536ZM117.62 28L114.9 24.256V28H112.164V16.16H114.9V22.704L117.604 19.072H120.98L117.268 23.552L121.012 28H117.62ZM135.173 16.768V28H132.437V23.376H128.181V28H125.445V16.768H128.181V21.168H132.437V16.768H135.173ZM141.212 28.128C140.338 28.128 139.548 27.9413 138.844 27.568C138.151 27.1947 137.602 26.6613 137.196 25.968C136.802 25.2747 136.604 24.464 136.604 23.536C136.604 22.6187 136.807 21.8133 137.212 21.12C137.618 20.416 138.172 19.8773 138.876 19.504C139.58 19.1307 140.37 18.944 141.244 18.944C142.119 18.944 142.908 19.1307 143.612 19.504C144.316 19.8773 144.871 20.416 145.276 21.12C145.682 21.8133 145.884 22.6187 145.884 23.536C145.884 24.4533 145.676 25.264 145.26 25.968C144.855 26.6613 144.295 27.1947 143.58 27.568C142.876 27.9413 142.087 28.128 141.212 28.128ZM141.212 25.76C141.735 25.76 142.178 25.568 142.54 25.184C142.914 24.8 143.1 24.2507 143.1 23.536C143.1 22.8213 142.919 22.272 142.556 21.888C142.204 21.504 141.767 21.312 141.244 21.312C140.711 21.312 140.268 21.504 139.916 21.888C139.564 22.2613 139.388 22.8107 139.388 23.536C139.388 24.2507 139.559 24.8 139.9 25.184C140.252 25.568 140.69 25.76 141.212 25.76ZM158.728 18.976C159.837 18.976 160.717 19.312 161.368 19.984C162.029 20.656 162.36 21.5893 162.36 22.784V28H159.64V23.152C159.64 22.576 159.485 22.1333 159.176 21.824C158.877 21.504 158.461 21.344 157.928 21.344C157.394 21.344 156.973 21.504 156.664 21.824C156.365 22.1333 156.216 22.576 156.216 23.152V28H153.496V23.152C153.496 22.576 153.341 22.1333 153.032 21.824C152.733 21.504 152.317 21.344 151.784 21.344C151.25 21.344 150.829 21.504 150.52 21.824C150.221 22.1333 150.072 22.576 150.072 23.152V28H147.336V19.072H150.072V20.192C150.349 19.8187 150.712 19.5253 151.16 19.312C151.608 19.088 152.114 18.976 152.68 18.976C153.352 18.976 153.949 19.12 154.472 19.408C155.005 19.696 155.421 20.1067 155.72 20.64C156.029 20.1493 156.45 19.7493 156.984 19.44C157.517 19.1307 158.098 18.976 158.728 18.976ZM172.689 23.392C172.689 23.648 172.673 23.9147 172.641 24.192H166.449C166.492 24.7467 166.668 25.1733 166.977 25.472C167.297 25.76 167.687 25.904 168.145 25.904C168.828 25.904 169.303 25.616 169.569 25.04H172.481C172.332 25.6267 172.06 26.1547 171.665 26.624C171.281 27.0933 170.796 27.4613 170.209 27.728C169.623 27.9947 168.967 28.128 168.241 28.128C167.367 28.128 166.588 27.9413 165.905 27.568C165.223 27.1947 164.689 26.6613 164.305 25.968C163.921 25.2747 163.729 24.464 163.729 23.536C163.729 22.608 163.916 21.7973 164.289 21.104C164.673 20.4107 165.207 19.8773 165.889 19.504C166.572 19.1307 167.356 18.944 168.241 18.944C169.105 18.944 169.873 19.1253 170.545 19.488C171.217 19.8507 171.74 20.368 172.113 21.04C172.497 21.712 172.689 22.496 172.689 23.392ZM169.889 22.672C169.889 22.2027 169.729 21.8293 169.409 21.552C169.089 21.2747 168.689 21.136 168.209 21.136C167.751 21.136 167.361 21.2693 167.041 21.536C166.732 21.8027 166.54 22.1813 166.465 22.672H169.889Z" fill="white"/>
</svg>
